<svg version="1.1" id="Layer_1" xmlns="http://www.w3.org/2000/svg" xmlns:xlink="http://www.w3.org/1999/xlink" x="0px" y="0px"
	 width="100%" viewBox="0 0 128 128" enable-background="new 0 0 128 128" xml:space="preserve">
<path fill="#FEFBF2" opacity="1.000000" stroke="none" 
	d="
M129.000000,33.000000 
	C129.000000,53.687561 129.000000,74.375122 128.677109,95.232773 
	C127.977722,95.728424 127.372345,95.988518 127.257767,96.389015 
	C122.972130,111.369202 113.234566,121.184387 98.835106,126.695152 
	C98.045090,126.997498 97.603683,128.210754 97.000000,129.000000 
	C76.312439,129.000000 55.624878,129.000000 34.767242,128.677124 
	C34.271641,127.977715 34.011604,127.372269 33.611134,127.257698 
	C18.630886,122.972046 8.815409,113.234726 3.304947,98.834877 
	C3.002647,98.044922 1.789287,97.603600 1.000002,97.000000 
	C1.000000,76.312439 1.000000,55.624878 1.322894,34.767231 
	C2.022387,34.271465 2.628292,34.011158 2.742475,33.610664 
	C7.015715,18.622347 16.766819,8.823209 31.159327,3.308891 
	C31.951475,3.005388 32.394482,1.790608 33.000000,1.000000 
	C53.687561,1.000000 74.375122,1.000000 95.232803,1.322907 
	C95.728516,2.022295 95.988640,2.627632 96.389160,2.742212 
	C111.369400,7.027754 121.184883,16.764925 126.695122,31.164869 
	C126.997429,31.954895 128.210739,32.396313 129.000000,33.000000 
M46.558300,38.720299 
	C44.715973,37.982285 42.926708,37.042995 41.022186,36.540897 
	C32.512257,34.297375 23.141945,37.807865 18.125988,44.988136 
	C12.612757,52.880249 12.567630,62.500729 18.007851,70.172493 
	C23.162880,77.442078 32.853546,81.887024 40.787239,78.621902 
	C52.061195,73.982094 62.715324,67.836205 74.346710,61.974796 
	C64.731094,53.880009 55.961990,46.497841 46.558300,38.720299 
M95.715202,50.105495 
	C88.666145,53.935093 81.617096,57.764690 73.997971,61.903996 
	C81.621773,68.383553 88.597649,74.745964 96.050247,80.489830 
	C100.798378,84.149307 106.519089,84.433815 112.141670,82.115273 
	C121.998138,78.050858 126.302803,67.834900 122.190315,58.455143 
	C117.677643,48.162682 107.367538,44.710602 95.715202,50.105495 
M77.022171,95.486877 
	C79.009384,94.239281 81.324387,93.288277 82.839668,91.613655 
	C83.552055,90.826363 83.239647,87.685852 82.495430,87.287964 
	C80.652176,86.302490 78.169838,85.632248 76.166054,86.010437 
	C71.999214,86.796875 72.132896,90.311737 77.022171,95.486877 
z"/>
<path fill="#000000" opacity="1.000000" stroke="none" 
	d="
M32.531342,1.000000 
	C32.394482,1.790608 31.951475,3.005388 31.159327,3.308891 
	C16.766819,8.823209 7.015715,18.622347 2.742475,33.610664 
	C2.628292,34.011158 2.022387,34.271465 1.322894,34.298573 
	C1.000000,23.074581 1.000000,12.149162 1.000000,1.000000 
	C11.353155,1.000000 21.707918,1.000000 32.531342,1.000000 
z"/>
<path fill="#000000" opacity="1.000000" stroke="none" 
	d="
M129.000000,32.531342 
	C128.210739,32.396313 126.997429,31.954895 126.695122,31.164869 
	C121.184883,16.764925 111.369400,7.027754 96.389160,2.742212 
	C95.988640,2.627632 95.728516,2.022295 95.701462,1.322907 
	C106.925423,1.000000 117.850838,1.000000 129.000000,1.000000 
	C129.000000,11.353155 129.000000,21.707918 129.000000,32.531342 
z"/>
<path fill="#000000" opacity="1.000000" stroke="none" 
	d="
M97.468658,129.000000 
	C97.603683,128.210754 98.045090,126.997498 98.835106,126.695152 
	C113.234566,121.184387 122.972130,111.369202 127.257767,96.389015 
	C127.372345,95.988518 127.977722,95.728424 128.677109,95.701431 
	C129.000000,106.925423 129.000000,117.850838 129.000000,129.000000 
	C118.646843,129.000000 108.292084,129.000000 97.468658,129.000000 
z"/>
<path fill="#000000" opacity="1.000000" stroke="none" 
	d="
M1.000002,97.468658 
	C1.789287,97.603600 3.002647,98.044922 3.304947,98.834877 
	C8.815409,113.234726 18.630886,122.972046 33.611134,127.257698 
	C34.011604,127.372269 34.271641,127.977715 34.298584,128.677124 
	C23.074581,129.000000 12.149162,129.000000 1.000000,129.000000 
	C1.000000,118.646843 1.000000,108.292084 1.000002,97.468658 
z"/>
<path fill="#0A0804" opacity="1.000000" stroke="none" 
	d="
M46.875591,38.917984 
	C55.961990,46.497841 64.731094,53.880009 74.346710,61.974796 
	C62.715324,67.836205 52.061195,73.982094 40.787239,78.621902 
	C32.853546,81.887024 23.162880,77.442078 18.007851,70.172493 
	C12.567630,62.500729 12.612757,52.880249 18.125988,44.988136 
	C23.141945,37.807865 32.512257,34.297375 41.022186,36.540897 
	C42.926708,37.042995 44.715973,37.982285 46.875591,38.917984 
z"/>
<path fill="#0B0905" opacity="1.000000" stroke="none" 
	d="
M96.072289,49.967613 
	C107.367538,44.710602 117.677643,48.162682 122.190315,58.455143 
	C126.302803,67.834900 121.998138,78.050858 112.141670,82.115273 
	C106.519089,84.433815 100.798378,84.149307 96.050247,80.489830 
	C88.597649,74.745964 81.621773,68.383553 73.997971,61.903996 
	C81.617096,57.764690 88.666145,53.935093 96.072289,49.967613 
z"/>
<path fill="#0C0C0C" opacity="1.000000" stroke="none" 
	d="
M76.689651,95.327621 
	C72.132896,90.311737 71.999214,86.796875 76.166054,86.010437 
	C78.169838,85.632248 80.652176,86.302490 82.495430,87.287964 
	C83.239647,87.685852 83.552055,90.826363 82.839668,91.613655 
	C81.324387,93.288277 79.009384,94.239281 76.689651,95.327621 
z"/>
</svg>